<svg width="256" height="256" xmlns="http://www.w3.org/2000/svg">
    <path
            d="
                M  98 246
                Q 128 256, 158 246
                L 158 120
                C 158  70, 138  70, 138  10
                L 118  10
                C 118  70,  98  70,  98 120
                Z
            "
            fill="darkgreen"
            stroke="black"
    />
    <path
            d="
                M  98 140
                Q 128 150, 158 140
                L 158 200
                Q 128 210, 98 200
                Z
            "
            fill="beige"
            stroke="black"
    />

    <rect x="118" y="4.5" width="20" height="5" fill="sienna"/>

    <rect x="125" y="150" width="6" height="10" fill="sienna"/>
    <circle cx="118" cy="165" r="5" stroke="black" stroke-width="3" fill="purple" />
    <circle cx="128" cy="165" r="5" stroke="black" stroke-width="3" fill="purple" />
    <circle cx="138" cy="165" r="5" stroke="black" stroke-width="3" fill="purple" />
    <circle cx="123" cy="175" r="5" stroke="black" stroke-width="3" fill="purple" />
    <circle cx="133" cy="175" r="5" stroke="black" stroke-width="3" fill="purple" />
    <circle cx="128" cy="185" r="5" stroke="black" stroke-width="3" fill="purple" />
</svg>
